<?xml version="1.0" standalone="no"?>
<!DOCTYPE svg PUBLIC "-//W3C//DTD SVG 20010904//EN"
 "http://www.w3.org/TR/2001/REC-SVG-20010904/DTD/svg10.dtd">
<svg version="1.0" xmlns="http://www.w3.org/2000/svg"
 width="500.000000pt" height="500.000000pt" viewBox="0 0 500.000000 500.000000"
 preserveAspectRatio="xMidYMid meet">

<g transform="translate(0.000000,500.000000) scale(0.100000,-0.100000)"
fill="#000000" stroke="none">
<path d="M2468 3803 c-22 -24 -25 -125 -5 -142 8 -6 58 -15 112 -21 170 -19
312 -88 426 -207 79 -82 130 -167 166 -276 23 -71 27 -98 27 -202 0 -155 -33
-266 -113 -385 l-31 -45 57 -57 c32 -32 60 -58 64 -58 12 0 87 118 122 192 47
99 68 184 74 306 25 472 -328 868 -810 908 -63 6 -74 4 -89 -13z"/>
<path d="M2362 3748 c-1 -10 -9 -18 -17 -18 -12 0 -15 -18 -15 -99 l0 -99 -37
-13 c-45 -14 -143 -70 -143 -81 0 -5 -6 -8 -14 -8 -18 0 -88 -78 -81 -90 8
-13 39 3 57 29 17 23 139 107 170 116 76 22 83 30 86 94 2 36 -2 68 -10 81
-11 17 -11 22 0 29 9 5 12 21 9 42 -2 19 -5 26 -5 17z"/>
<path d="M2150 3619 c-6 -11 -10 -25 -7 -32 2 -6 -8 -21 -22 -34 -25 -22 -25
-22 -3 -18 33 6 41 13 37 34 -2 11 5 27 16 37 23 20 25 34 4 34 -8 0 -19 -9
-25 -21z"/>
<path d="M1970 3619 c0 -5 5 -7 10 -4 6 3 10 8 10 11 0 2 -4 4 -10 4 -5 0 -10
-5 -10 -11z"/>
<path d="M2070 3610 c-9 -6 -10 -10 -3 -10 6 0 15 5 18 10 8 12 4 12 -15 0z"/>
<path d="M2208 3598 c2 -10 -2 -20 -12 -24 -22 -8 -20 -24 3 -24 10 0 22 7 25
16 10 27 7 51 -8 51 -8 0 -11 -8 -8 -19z"/>
<path d="M1907 3587 c-6 -15 2 -25 31 -42 11 -6 12 -4 3 11 -24 43 -28 47 -34
31z"/>
<path d="M1827 3495 c-3 -7 3 -15 15 -18 13 -4 17 -10 12 -18 -4 -7 -3 -10 4
-6 13 9 4 44 -13 51 -7 2 -16 -1 -18 -9z"/>
<path d="M2381 3464 c-161 -43 -312 -181 -366 -334 -103 -292 68 -606 373
-686 117 -31 278 -7 388 58 125 73 209 184 244 324 34 131 22 240 -38 363
-107 219 -367 338 -601 275z m45 -144 c18 0 44 -59 43 -97 0 -15 -3 -22 -6
-15 -9 24 -19 12 -15 -18 3 -19 -2 -38 -11 -48 -8 -9 -20 -28 -27 -41 -10 -19
-9 -22 1 -16 9 6 10 3 5 -10 -6 -16 -4 -16 10 -4 16 13 16 12 5 -8 -12 -24
-41 -21 -41 4 0 11 -4 13 -12 6 -26 -20 -80 -24 -99 -7 -17 15 -19 15 -30 -10
-13 -27 -25 -32 -48 -17 -10 6 -12 19 -7 45 8 43 2 46 -18 9 l-15 -28 -1 29
c0 42 39 114 84 152 48 41 136 86 154 79 8 -3 20 -5 28 -5z m-269 -282 c-3 -8
-6 -5 -6 6 -1 11 2 17 5 13 3 -3 4 -12 1 -19z m697 -194 c-37 -112 -105 -187
-204 -225 -52 -20 -108 -27 -81 -10 9 6 12 19 8 38 -5 26 -1 31 41 53 l46 25
-28 10 c-24 8 -27 13 -22 39 8 39 14 44 56 48 30 3 35 0 38 -20 4 -29 21 -24
48 15 19 29 22 30 47 16 26 -13 27 -13 43 27 22 56 28 44 8 -16z m6 -227 c0
-2 -12 -14 -27 -28 l-28 -24 24 28 c23 25 31 32 31 24z m-333 -23 c-3 -3 -12
-4 -19 -1 -8 3 -5 6 6 6 11 1 17 -2 13 -5z m228 -64 c-3 -5 -12 -10 -18 -10
-7 0 -6 4 3 10 19 12 23 12 15 0z"/>
<path d="M1790 3462 c0 -7 -4 -10 -10 -7 -5 3 -7 0 -4 -8 3 -8 -2 -17 -11 -21
-26 -10 -9 -23 25 -18 35 5 34 2 15 38 -8 16 -15 23 -15 16z"/>
<path d="M1982 3448 c-7 -7 -12 -38 -12 -70 0 -45 3 -58 15 -58 11 0 15 13 15
54 0 30 5 58 10 61 11 7 4 25 -9 25 -4 0 -12 -5 -19 -12z"/>
<path d="M1844 3424 c-11 -9 -13 -13 -6 -9 7 4 21 -4 34 -20 12 -16 24 -23 30
-17 12 12 2 35 -21 49 -15 9 -23 9 -37 -3z"/>
<path d="M1770 3331 c-12 -12 -16 -46 -18 -139 l-3 -122 70 -2 c39 -1 79 -2
89 -2 11 -1 17 6 17 19 0 18 -6 20 -72 17 l-73 -4 0 64 c0 70 6 84 35 90 11 2
19 10 18 16 -2 7 2 12 7 12 14 0 13 43 -2 58 -17 17 -50 14 -68 -7z m55 -31
c0 -8 -10 -16 -22 -18 -18 -3 -23 2 -23 18 0 16 5 21 23 18 12 -2 22 -10 22
-18z"/>
<path d="M1657 3273 c-8 -14 -1 -87 8 -90 12 -3 43 67 37 85 -4 13 -38 17 -45
5z"/>
<path d="M1956 3245 c-14 -33 -37 -43 -80 -36 -13 3 -36 -20 -30 -30 3 -5 29
-9 59 -9 l54 0 20 46 c12 25 18 50 15 55 -10 18 -24 8 -38 -26z"/>
<path d="M1635 3140 c-4 -6 -9 -34 -12 -63 -5 -48 -3 -54 25 -80 21 -20 40
-28 72 -30 27 -1 44 3 47 11 3 8 -6 12 -29 12 -24 0 -42 8 -59 26 -20 22 -23
34 -21 80 4 50 -7 70 -23 44z"/>
<path d="M1817 2989 c-18 -14 -20 -20 -9 -30 9 -10 15 -10 24 -1 15 15 45 16
53 2 14 -22 -6 -50 -36 -50 -38 0 -38 -19 0 -26 41 -8 59 -74 21 -74 -11 0
-20 -7 -20 -15 0 -8 9 -15 20 -15 13 0 25 -12 35 -36 8 -21 20 -34 27 -31 14
5 15 1 -6 111 -8 44 -12 91 -9 106 3 15 0 37 -6 48 -15 27 -67 34 -94 11z"/>
<path d="M1621 2906 c-16 -19 -10 -66 10 -79 26 -16 68 0 75 30 4 14 2 33 -3
42 -13 21 -66 26 -82 7z m57 -34 c3 -17 -2 -22 -17 -22 -14 0 -21 6 -21 18 0
38 33 41 38 4z"/>
<path d="M1707 2783 c-39 -30 -46 -60 -24 -100 19 -34 39 -15 28 25 -9 28 -7
34 19 52 15 11 42 20 59 20 21 0 31 5 31 15 0 27 -72 19 -113 -12z"/>
<path d="M1808 2703 c-1 -4 -2 -45 -2 -90 -1 -62 -6 -86 -19 -101 -33 -36 -10
-102 35 -102 38 0 63 65 33 90 -10 8 -15 38 -17 108 -2 65 -7 97 -15 100 -7 2
-14 0 -15 -5z m31 -227 c17 -20 -13 -43 -34 -26 -12 10 -13 16 -4 26 6 8 15
14 19 14 4 0 13 -6 19 -14z"/>
<path d="M1913 2659 c-12 -12 -5 -98 10 -116 5 -7 31 -13 58 -13 l49 0 0 -54
c0 -49 3 -57 34 -84 19 -17 42 -34 51 -39 8 -5 17 -19 20 -32 10 -55 62 -70
91 -26 15 23 15 27 0 50 -12 18 -25 25 -47 25 -19 0 -45 12 -70 32 -37 30 -39
34 -39 89 0 34 -5 61 -12 65 -6 4 -34 8 -62 8 l-51 2 -2 39 c-2 64 -3 65 -11
65 -4 0 -13 -5 -19 -11z m290 -334 c7 -17 -8 -29 -28 -21 -17 6 -9 36 10 36 7
0 15 -7 18 -15z"/>
<path d="M1692 2628 c-26 -26 1 -65 38 -53 32 10 20 65 -15 65 -6 0 -16 -5
-23 -12z"/>
<path d="M2832 2488 l-44 -30 31 -32 c17 -18 31 -40 31 -49 0 -40 -144 -94
-282 -106 -48 -4 -94 -14 -103 -21 -11 -9 -15 -31 -15 -76 0 -52 3 -65 19 -74
72 -38 381 39 490 122 36 28 52 22 111 -37 l54 -55 118 0 c76 0 118 4 118 11
0 5 -84 93 -187 194 l-188 185 -55 -1 c-45 0 -63 -5 -98 -31z"/>
<path d="M2134 2499 c-3 -6 6 -22 22 -34 32 -26 146 -85 163 -85 7 0 11 -36
11 -106 l0 -106 -37 6 c-80 15 -218 71 -256 104 -14 12 -20 13 -30 3 -9 -10
-6 -18 18 -37 82 -66 314 -137 336 -103 5 8 9 69 9 135 l0 122 -49 21 c-27 11
-53 21 -58 21 -4 0 -30 16 -57 35 -54 38 -61 41 -72 24z"/>
<path d="M1900 2371 c-24 -45 7 -84 62 -79 31 3 33 5 30 38 -2 19 -9 41 -14
48 -16 19 -66 15 -78 -7z m64 -20 c8 -12 -21 -34 -34 -26 -17 11 -11 35 9 35
11 0 22 -4 25 -9z"/>
<path d="M785 1832 c-3 -3 -5 -101 -5 -219 l0 -213 213 0 213 0 17 35 c9 20
17 38 17 40 0 3 -85 5 -190 5 l-190 0 0 175 c0 133 -3 175 -12 176 -7 0 -23 2
-36 3 -12 2 -24 0 -27 -2z"/>
<path d="M1368 1833 c-13 -3 -18 -14 -18 -39 l0 -34 220 0 220 0 0 35 c0 34
-1 35 -42 37 -109 4 -365 4 -380 1z"/>
<path d="M1953 1832 l-33 -3 0 -215 0 -214 40 0 40 0 0 148 c0 82 3 152 6 155
4 4 25 -10 48 -30 40 -35 69 -62 224 -205 64 -60 77 -68 112 -68 l40 0 -2 218
-3 217 -35 0 -35 -1 -5 -156 -5 -155 -165 149 c-91 83 -172 153 -180 157 -8 3
-30 5 -47 3z"/>
<path d="M2675 1831 c-74 -18 -106 -56 -107 -123 -1 -54 14 -83 55 -108 27
-17 51 -20 162 -20 139 0 175 -10 175 -50 0 -44 -22 -50 -186 -50 l-154 0 -20
-40 -20 -40 179 0 c199 0 234 8 265 60 26 45 21 114 -11 150 -36 40 -79 49
-223 50 -123 0 -140 6 -140 46 0 44 33 54 182 54 l138 0 20 32 c10 17 17 35
15 38 -6 9 -294 10 -330 1z"/>
<path d="M3809 1826 c-14 -7 -37 -16 -51 -19 -28 -7 -67 -54 -87 -104 -8 -20
-12 -59 -9 -102 3 -58 9 -78 33 -113 48 -69 97 -87 233 -88 61 0 112 4 112 8
0 5 -13 21 -30 35 -26 23 -39 27 -94 27 -114 0 -163 35 -175 124 -6 46 -4 64
12 99 11 23 19 46 18 50 -1 5 3 6 8 3 5 -3 26 1 47 10 49 21 174 15 221 -10
43 -22 76 -86 71 -138 -3 -33 1 -43 28 -69 l32 -31 13 56 c18 83 0 154 -54
211 -26 27 -57 47 -82 54 -57 15 -214 14 -246 -3z"/>
<path d="M3471 1613 l-2 -213 36 0 35 0 0 205 c0 188 -1 205 -17 206 -15 0
-15 2 2 9 16 7 12 8 -16 8 l-37 -1 -1 -214z"/>
<path d="M1354 1647 c-2 -7 -3 -65 -2 -128 l3 -114 218 -3 217 -2 0 40 0 40
-175 0 -175 0 0 50 0 50 143 0 143 0 17 35 c9 20 17 38 17 40 0 3 -90 5 -200
5 -156 0 -202 -3 -206 -13z"/>
<path d="M3150 1625 l0 -35 78 0 c75 0 78 1 95 29 9 16 17 32 17 35 0 3 -43 6
-95 6 l-95 0 0 -35z"/>
<path d="M4050 1455 l105 -105 60 0 60 0 -105 105 -105 105 -60 0 -60 0 105
-105z"/>
</g>
</svg>
